<svg width="30" height="30" viewBox="0 0 30 30" fill="none" xmlns="http://www.w3.org/2000/svg">
<path d="M27.1875 15V21.5625C27.1875 22.3084 26.8912 23.0238 26.3637 23.5512C25.8363 24.0787 25.1209 24.375 24.375 24.375H22.5C21.7541 24.375 21.0387 24.0787 20.5113 23.5512C19.9838 23.0238 19.6875 22.3084 19.6875 21.5625V16.875C19.6875 16.1291 19.9838 15.4137 20.5113 14.8862C21.0387 14.3588 21.7541 14.0625 22.5 14.0625H25.2715C25.0463 11.5102 23.876 9.13414 21.99 7.39989C20.104 5.66564 17.6383 4.6983 15.0762 4.68748H15C12.4272 4.68735 9.9472 5.64896 8.04699 7.38352C6.14678 9.11808 4.96358 11.5003 4.72969 14.0625H7.5C8.24592 14.0625 8.96129 14.3588 9.48874 14.8862C10.0162 15.4137 10.3125 16.1291 10.3125 16.875V21.5625C10.3125 22.3084 10.0162 23.0238 9.48874 23.5512C8.96129 24.0787 8.24592 24.375 7.5 24.375H5.625C4.87908 24.375 4.16371 24.0787 3.63626 23.5512C3.10882 23.0238 2.8125 22.3084 2.8125 21.5625V15C2.81513 12.5858 3.53393 10.2267 4.87793 8.22118C6.22193 6.2157 8.13071 4.65404 10.3626 3.73386C12.5946 2.81369 15.0493 2.57636 17.4162 3.05193C19.7831 3.5275 21.9557 4.69458 23.659 6.40545C24.7836 7.53549 25.6741 8.87633 26.2796 10.3511C26.8851 11.8259 27.1936 13.4057 27.1875 15Z" fill="white"/>
</svg>
